# xmcd
#
# Track frame offsets:
#	150
#	13375
#	22937
#	34187
#	44237
#	57150
#	74507
#	86787
#	96537
#	111787
#	124162
#	132940
#
# Disc length: 1969 seconds
#
# Revision: 0
# Processed by: cddbd v1.5.1PL0 Copyright (c) Steve Scherf et al.
# Submitted via: dBpowerAMP V4.0
#
DISCID=b207af0c
DTITLE=Maria Amália - Meu País Meu Fado
DYEAR=1991
DGENRE=Fado
TTITLE0=Amália Rodrigues - Vem Beber Vinho Novo
TTITLE1=Amália Rodrigues - Nasci No Frio
TTITLE2=Amália Rodrigues - Perseguição
TTITLE3=Amália Rodrigues - Meu País
TTITLE4=Amália Rodrigues - Sete Gritos
TTITLE5=Amália Rodrigues - Já Sei, Meu Amor Já Sei
TTITLE6=Amália Rodrigues - Castigo de Deus
TTITLE7=Lá Vem Ela, É Portuguesa
TTITLE8=Amália Rodrigues - Meu Corpo
TTITLE9=Amália Rodrigues - Sem Razão
TTITLE10=Amália Rodrigues - Tudo Por Tudo
TTITLE11=Amália Rodrigues - Senhora do Tejo
EXTD=Meu País Meu Fado\nSérie Ouro\nMovie Play
EXTT0=
EXTT1=
EXTT2=
EXTT3=
EXTT4=
EXTT5=
EXTT6=
EXTT7=
EXTT8=
EXTT9=
EXTT10=
EXTT11=
PLAYORDER=
